<svg xmlns="http://www.w3.org/2000/svg" xmlns:xlink="http://www.w3.org/1999/xlink" viewBox="0 0 500 500"><defs><style>.cls-1{fill:#fff;}.cls-2{fill:url(#Dégradé_sans_nom_17);}.cls-3{fill:url(#Dégradé_sans_nom_17-2);}</style><linearGradient id="Dégradé_sans_nom_17" x1="250" y1="348.66" x2="250" y2="98.66" gradientUnits="userSpaceOnUse"><stop offset="0" stop-color="#3371ec"/><stop offset="1" stop-color="#3371ec" stop-opacity="0"/></linearGradient><linearGradient id="Dégradé_sans_nom_17-2" x1="-876.68" y1="-813.37" x2="-876.68" y2="-1063.37" gradientTransform="translate(293.62 -1007.09) rotate(-135)" xlink:href="#Dégradé_sans_nom_17"/></defs><g id="BG"><circle class="cls-1" cx="250" cy="250" r="250"/></g><g id="Calque_1" data-name="Calque 1"><path class="cls-2" d="M250,98.66a125,125,0,1,0,125,125A125,125,0,0,0,250,98.66ZM250,296a72.32,72.32,0,1,1,72.32-72.32A72.32,72.32,0,0,1,250,296Z"/><path class="cls-3" d="M161.61,364.73a125,125,0,1,0,0-176.78A125,125,0,0,0,161.61,364.73ZM301.14,225.2a72.32,72.32,0,1,1-102.28,0A72.33,72.33,0,0,1,301.14,225.2Z"/></g></svg>